<?xml version="1.0" standalone="no"?>
<!DOCTYPE svg PUBLIC "-//W3C//DTD SVG 20010904//EN"
 "http://www.w3.org/TR/2001/REC-SVG-20010904/DTD/svg10.dtd">
<svg version="1.0" xmlns="http://www.w3.org/2000/svg"
 width="512.000000pt" height="512.000000pt" viewBox="0 0 512.000000 512.000000"
 preserveAspectRatio="xMidYMid meet">
<metadata>
Created by potrace 1.14, written by Peter Selinger 2001-2017
</metadata>
<g transform="translate(0.000000,512.000000) scale(0.100000,-0.100000)"
fill="#000000" stroke="none">
<path d="M2322 5089 c-255 -24 -543 -99 -777 -201 -88 -39 -260 -125 -280
-141 -5 -4 -35 -23 -65 -42 -30 -19 -66 -43 -80 -52 -580 -417 -933 -965
-1059 -1648 -30 -159 -31 -180 -35 -390 -8 -382 38 -633 186 -1025 7 -19 45
-98 84 -176 157 -311 372 -581 639 -804 50 -41 92 -78 93 -82 2 -5 8 -8 13 -8
6 0 30 -15 53 -32 127 -96 364 -225 521 -285 138 -53 170 -65 185 -69 8 -2 58
-15 110 -28 216 -57 398 -80 635 -81 233 0 311 7 515 46 97 19 288 69 335 89
11 4 47 18 80 30 80 30 335 154 388 189 23 15 69 45 102 67 345 223 663 580
855 959 152 301 232 573 269 920 9 83 8 496 -2 511 -2 5 -8 34 -11 64 -8 72
-22 146 -50 270 -19 82 -84 283 -117 360 -243 566 -658 1015 -1191 1289 -140
71 -166 83 -318 137 -110 40 -332 98 -420 109 -57 7 -128 18 -145 22 -38 8
-430 10 -513 2z"/>
</g>
</svg>
